<svg xmlns="http://www.w3.org/2000/svg" viewBox="0 0 1600 900" width="1600" height="900">
<rect width="1600" height="900" fill="#f4f8fc"/>
<text x="80" y="120" font-family="Noto Sans SC" font-size="48" font-weight="900" fill="#09152e">LoRA 微调训练曲线</text>
<text x="80" y="170" font-family="JetBrains Mono" font-size="20" fill="#475569">Qwen2.5-7B · rank=16 · alpha=32 · 4 epoch</text>
<g transform="translate(120,260)">
<polyline fill="none" stroke="#4f46e5" stroke-width="4" points="0,320.0 70,319.577 140,319.148 210,318.713 280,318.272 350,317.825 420,317.372 490,316.913 560,316.448 630,315.977 700,315.5 770,315.017 840,314.528 910,314.033 980,313.532 1050,313.025 1120,312.512 1190,311.993 1260,311.468 1330,310.937"/><circle cx="0" cy="320.0" r="4" fill="#4f46e5"/><circle cx="70" cy="319.577" r="4" fill="#4f46e5"/><circle cx="140" cy="319.148" r="4" fill="#4f46e5"/><circle cx="210" cy="318.713" r="4" fill="#4f46e5"/><circle cx="280" cy="318.272" r="4" fill="#4f46e5"/><circle cx="350" cy="317.825" r="4" fill="#4f46e5"/><circle cx="420" cy="317.372" r="4" fill="#4f46e5"/><circle cx="490" cy="316.913" r="4" fill="#4f46e5"/><circle cx="560" cy="316.448" r="4" fill="#4f46e5"/><circle cx="630" cy="315.977" r="4" fill="#4f46e5"/><circle cx="700" cy="315.5" r="4" fill="#4f46e5"/><circle cx="770" cy="315.017" r="4" fill="#4f46e5"/><circle cx="840" cy="314.528" r="4" fill="#4f46e5"/><circle cx="910" cy="314.033" r="4" fill="#4f46e5"/><circle cx="980" cy="313.532" r="4" fill="#4f46e5"/><circle cx="1050" cy="313.025" r="4" fill="#4f46e5"/><circle cx="1120" cy="312.512" r="4" fill="#4f46e5"/><circle cx="1190" cy="311.993" r="4" fill="#4f46e5"/><circle cx="1260" cy="311.468" r="4" fill="#4f46e5"/><circle cx="1330" cy="310.937" r="4" fill="#4f46e5"/><line x1="0" y1="380" x2="1400" y2="380" stroke="#475569" stroke-width="2"/><line x1="0" y1="0" x2="0" y2="380" stroke="#475569" stroke-width="2"/><text x="700" y="430" text-anchor="middle" font-family="JetBrains Mono" font-size="18" fill="#475569">训练步 (×1000)</text><text x="-220" y="190" transform="rotate(-90)" font-family="JetBrains Mono" font-size="18" fill="#475569">SFT loss</text></g><rect x="80" y="720" width="1440" height="120" rx="14" fill="white" stroke="#4f46e5" stroke-width="2"/><text x="120" y="770" font-family="JetBrains Mono" font-size="22" fill="#4f46e5" font-weight="700">loss: 2.4 → 0.91</text><text x="460" y="770" font-family="JetBrains Mono" font-size="22" fill="#4f46e5" font-weight="700">reward: 0.32 → 0.78</text><text x="880" y="770" font-family="JetBrains Mono" font-size="22" fill="#475569">epoch 4 · 收敛</text></svg>