<svg xmlns="http://www.w3.org/2000/svg" viewBox="0 0 1600 900" width="1600" height="900">
<rect width="1600" height="900" fill="#f4f8fc"/>
<text x="80" y="120" font-family="Noto Sans SC" font-size="48" font-weight="900" fill="#09152e">误差分布 · 240 段测试视频</text>
<text x="80" y="170" font-family="JetBrains Mono" font-size="20" fill="#475569">RMSE 分布 · 单位 cm · bin=1cm</text>
<g transform="translate(120,260)">
<line x1="0" y1="380" x2="1400" x2="380" stroke="#475569" stroke-width="2"/>
<line x1="0" y1="0" x2="0" y2="380" stroke="#475569" stroke-width="2"/>
<rect x="0" y="370" width="50" height="10" fill="#2563eb" opacity="0.85"/><text x="25" y="400" text-anchor="middle" font-family="JetBrains Mono" font-size="14" fill="#09152e">0-1cm</text><rect x="70" y="362" width="50" height="18" fill="#2563eb" opacity="0.85"/><rect x="140" y="350" width="50" height="30" fill="#2563eb" opacity="0.85"/><text x="165" y="400" text-anchor="middle" font-family="JetBrains Mono" font-size="14" fill="#09152e">2-3cm</text><rect x="210" y="325" width="50" height="55" fill="#2563eb" opacity="0.85"/><rect x="280" y="298" width="50" height="82" fill="#2563eb" opacity="0.85"/><text x="305" y="400" text-anchor="middle" font-family="JetBrains Mono" font-size="14" fill="#09152e">4-5cm</text><rect x="350" y="270" width="50" height="110" fill="#2563eb" opacity="0.85"/><rect x="420" y="242" width="50" height="138" fill="#2563eb" opacity="0.85"/><text x="445" y="400" text-anchor="middle" font-family="JetBrains Mono" font-size="14" fill="#09152e">6-7cm</text><rect x="490" y="212" width="50" height="168" fill="#2563eb" opacity="0.85"/><rect x="560" y="200" width="50" height="180" fill="#2563eb" opacity="0.85"/><text x="585" y="400" text-anchor="middle" font-family="JetBrains Mono" font-size="14" fill="#09152e">8-9cm</text><rect x="630" y="215" width="50" height="165" fill="#2563eb" opacity="0.85"/><rect x="700" y="240" width="50" height="140" fill="#2563eb" opacity="0.85"/><text x="725" y="400" text-anchor="middle" font-family="JetBrains Mono" font-size="14" fill="#09152e">10-11cm</text><rect x="770" y="270" width="50" height="110" fill="#2563eb" opacity="0.85"/><rect x="840" y="300" width="50" height="80" fill="#2563eb" opacity="0.85"/><text x="865" y="400" text-anchor="middle" font-family="JetBrains Mono" font-size="14" fill="#09152e">12-13cm</text><rect x="910" y="325" width="50" height="55" fill="#2563eb" opacity="0.85"/><rect x="980" y="345" width="50" height="35" fill="#2563eb" opacity="0.85"/><text x="1005" y="400" text-anchor="middle" font-family="JetBrains Mono" font-size="14" fill="#09152e">14-15cm</text><rect x="1050" y="358" width="50" height="22" fill="#2563eb" opacity="0.85"/><rect x="1120" y="366" width="50" height="14" fill="#2563eb" opacity="0.85"/><text x="1145" y="400" text-anchor="middle" font-family="JetBrains Mono" font-size="14" fill="#09152e">16-17cm</text><rect x="1190" y="371" width="50" height="9" fill="#2563eb" opacity="0.85"/><rect x="1260" y="375" width="50" height="5" fill="#2563eb" opacity="0.85"/><text x="1285" y="400" text-anchor="middle" font-family="JetBrains Mono" font-size="14" fill="#09152e">18-19cm</text><rect x="1330" y="377" width="50" height="3" fill="#2563eb" opacity="0.85"/>
<text x="700" y="430" text-anchor="middle" font-family="JetBrains Mono" font-size="16" fill="#475569">误差区间 (cm)</text>
<text x="-180" y="180" transform="rotate(-90)" font-family="JetBrains Mono" font-size="16" fill="#475569">样本数 (段)</text>
</g>
<rect x="80" y="730" width="1440" height="100" rx="14" fill="white" stroke="#2563eb" stroke-width="2"/>
<text x="120" y="780" font-family="JetBrains Mono" font-size="22" fill="#2563eb" font-weight="700">μ = 11.8 cm</text>
<text x="320" y="780" font-family="JetBrains Mono" font-size="22" fill="#2563eb" font-weight="700">σ = 4.2 cm</text>
<text x="520" y="780" font-family="JetBrains Mono" font-size="22" fill="#2563eb" font-weight="700">P95 = 14.9 cm</text>
<text x="780" y="780" font-family="JetBrains Mono" font-size="22" fill="#475569">静态 / 动态 / 8级阵风 + 小雨</text>
</svg>