<svg xmlns="http://www.w3.org/2000/svg" viewBox="0 0 1600 900" width="1600" height="900">
<rect width="1600" height="900" fill="#f4f8fc"/>
<text x="80" y="120" font-family="Noto Sans SC" font-size="48" font-weight="900" fill="#09152e">算法流水线 · YOLO11 + PnP</text>
<rect x="80" y="280" width="220" height="180" rx="18" fill="white" stroke="#0284c7" stroke-width="4"/><text x="190.0" y="350" text-anchor="middle" font-family="Noto Sans SC" font-size="24" font-weight="800" fill="#09152e">输入图像</text><text x="190.0" y="395" text-anchor="middle" font-family="JetBrains Mono" font-size="16" fill="#0284c7">1920×1080</text><polygon points="310,360 328,370 310,380" fill="#94a3b8"/><rect x="330" y="280" width="220" height="180" rx="18" fill="white" stroke="#2563eb" stroke-width="4"/><text x="440.0" y="350" text-anchor="middle" font-family="Noto Sans SC" font-size="24" font-weight="800" fill="#09152e">YOLO11 ROI</text><text x="440.0" y="395" text-anchor="middle" font-family="JetBrains Mono" font-size="16" fill="#2563eb">96.8% acc</text><polygon points="560,360 578,370 560,380" fill="#94a3b8"/><rect x="580" y="280" width="220" height="180" rx="18" fill="white" stroke="#1d4ed8" stroke-width="4"/><text x="690.0" y="350" text-anchor="middle" font-family="Noto Sans SC" font-size="24" font-weight="800" fill="#09152e">Harris 角点</text><text x="690.0" y="395" text-anchor="middle" font-family="JetBrains Mono" font-size="16" fill="#1d4ed8">亚像素</text><polygon points="810,360 828,370 810,380" fill="#94a3b8"/><rect x="830" y="280" width="220" height="180" rx="18" fill="white" stroke="#4f46e5" stroke-width="4"/><text x="940.0" y="350" text-anchor="middle" font-family="Noto Sans SC" font-size="24" font-weight="800" fill="#09152e">几何约束</text><text x="940.0" y="395" text-anchor="middle" font-family="JetBrains Mono" font-size="16" fill="#4f46e5">光线夹角不变性</text><polygon points="1060,360 1078,370 1060,380" fill="#94a3b8"/><rect x="1080" y="280" width="220" height="180" rx="18" fill="white" stroke="#7c3aed" stroke-width="4"/><text x="1190.0" y="350" text-anchor="middle" font-family="Noto Sans SC" font-size="24" font-weight="800" fill="#09152e">LM/TRR</text><text x="1190.0" y="395" text-anchor="middle" font-family="JetBrains Mono" font-size="16" fill="#7c3aed">双并发求解</text><polygon points="1310,360 1328,370 1310,380" fill="#94a3b8"/><rect x="1330" y="280" width="220" height="180" rx="18" fill="white" stroke="#0284c7" stroke-width="4"/><text x="1440.0" y="350" text-anchor="middle" font-family="Noto Sans SC" font-size="24" font-weight="800" fill="#09152e">位姿输出</text><text x="1440.0" y="395" text-anchor="middle" font-family="JetBrains Mono" font-size="16" fill="#0284c7">26 FPS · 11.8 cm</text><text x="80" y="600" font-family="Noto Sans SC" font-size="20" fill="#475569">前端：Jetson Orin · TensorRT FP16 · 26 FPS 实时解算</text></svg>